<svg id="fp-icon" xmlns="http://www.w3.org/2000/svg" xmlns:xlink="http://www.w3.org/1999/xlink" width="168" height="168" viewBox="0 0 168 168">
  <defs>
    <filter id="paint-roller" x="23.896" y="27.489" width="109.672" height="109.672" filterUnits="userSpaceOnUse">
      <feOffset dx="2" dy="4" input="SourceAlpha"/>
      <feGaussianBlur stdDeviation="3.5" result="blur"/>
      <feFlood flood-opacity="0.29"/>
      <feComposite operator="in" in2="blur"/>
      <feComposite in="SourceGraphic"/>
    </filter>
  </defs>
  <circle id="Ellipse_7" data-name="Ellipse 7" cx="84" cy="84" r="84" fill="#1f3228"/>
  <path id="Path_4" data-name="Path 4" d="M84,0A84,84,0,1,1,0,84,84,84,0,0,1,84,0Z" fill="#1f3228"/>
  <path id="Path_5" data-name="Path 5" d="M73.25,0A73.25,73.25,0,1,1,0,73.25,73.25,73.25,0,0,1,73.25,0Z" transform="translate(10.75 10.75)" fill="#0cce6b" opacity="0.06"/>
  <path id="Path_6" data-name="Path 6" d="M61.9,50.955h58.26v87.882L61.9,156.3Z" transform="translate(-0.955 -14.541) rotate(3)" fill="#1f3228" opacity="0.5"/>
  <g transform="matrix(1, 0, 0, 1, 0, 0)" filter="url(#paint-roller)">
    <path id="paint-roller-2" data-name="paint-roller" d="M7.91,10.547h7.91V7.91A7.91,7.91,0,0,1,23.73,0H76.462a7.91,7.91,0,0,1,7.91,7.91V18.456a7.91,7.91,0,0,1-7.91,7.91H23.73a7.91,7.91,0,0,1-7.91-7.91V15.82H7.91a2.64,2.64,0,0,0-2.637,2.637v15.82A2.64,2.64,0,0,0,7.91,36.913H42.186a7.918,7.918,0,0,1,7.91,7.91v7.91h2.637a5.274,5.274,0,0,1,5.273,5.273V79.1a5.274,5.274,0,0,1-5.273,5.273H42.186A5.274,5.274,0,0,1,36.913,79.1V58.006a5.274,5.274,0,0,1,5.273-5.273h2.637v-7.91a2.64,2.64,0,0,0-2.637-2.637H7.91A7.918,7.918,0,0,1,0,34.276V18.456A7.918,7.918,0,0,1,7.91,10.547Zm13.183,0v7.91a2.64,2.64,0,0,0,2.637,2.637H76.462A2.64,2.64,0,0,0,79.1,18.456V7.91a2.64,2.64,0,0,0-2.637-2.637H23.73A2.64,2.64,0,0,0,21.093,7.91ZM42.186,79.1H52.733V58.006H42.186Z" transform="translate(36.81 33.99) rotate(3)" fill="#0ccd6a"/>
  </g>
</svg>
