<svg xmlns="http://www.w3.org/2000/svg" width="168" height="168" viewBox="0 0 168 168"><circle cx="84" cy="84" r="84" fill="#1f3228"/><path d="M84,0A84,84,0,1,1,0,84,84,84,0,0,1,84,0Z" fill="#1f3228"/><path d="M71,0A71,71,0,1,1,0,71,71,71,0,0,1,71,0Z" transform="translate(13 13)" fill="#0cce6b" opacity="0.06"/><path d="M7.91,10.547h7.91V7.91A7.91,7.91,0,0,1,23.73,0H76.462a7.91,7.91,0,0,1,7.91,7.91V18.456a7.91,7.91,0,0,1-7.91,7.91H23.73a7.91,7.91,0,0,1-7.91-7.91V15.82H7.91a2.64,2.64,0,0,0-2.637,2.637v15.82A2.64,2.64,0,0,0,7.91,36.913H42.186a7.918,7.918,0,0,1,7.91,7.91v7.91h2.637a5.274,5.274,0,0,1,5.273,5.273V79.1a5.274,5.274,0,0,1-5.273,5.273H42.186A5.274,5.274,0,0,1,36.913,79.1V58.006a5.274,5.274,0,0,1,5.273-5.273h2.637v-7.91a2.64,2.64,0,0,0-2.637-2.637H7.91A7.918,7.918,0,0,1,0,34.276V18.456A7.918,7.918,0,0,1,7.91,10.547Zm13.183,0v7.91a2.64,2.64,0,0,0,2.637,2.637H76.462A2.64,2.64,0,0,0,79.1,18.456V7.91a2.64,2.64,0,0,0-2.637-2.637H23.73A2.64,2.64,0,0,0,21.093,7.91ZM42.186,79.1H52.733V58.006H42.186Z" transform="translate(42.128 42.128)" fill="#0ccd6a"/></svg>