<svg xmlns="http://www.w3.org/2000/svg" width="168" height="168" viewBox="0 0 168 168"><circle cx="84" cy="84" r="84" fill="#1f3228"/><path d="M64.92,8.954H58.2V6.716A6.716,6.716,0,0,0,51.488,0H6.716A6.716,6.716,0,0,0,0,6.716V15.67a6.716,6.716,0,0,0,6.716,6.716H51.488A6.716,6.716,0,0,0,58.2,15.67V13.432H64.92a2.242,2.242,0,0,1,2.239,2.239V29.1a2.242,2.242,0,0,1-2.239,2.239h-29.1A6.723,6.723,0,0,0,29.1,38.056v6.716H26.863a4.478,4.478,0,0,0-4.477,4.477V67.158a4.478,4.478,0,0,0,4.477,4.477h8.954A4.478,4.478,0,0,0,40.3,67.158V49.249a4.478,4.478,0,0,0-4.477-4.477H33.579V38.056a2.242,2.242,0,0,1,2.239-2.239h29.1A6.723,6.723,0,0,0,71.636,29.1V15.67A6.723,6.723,0,0,0,64.92,8.954Zm-11.193,0V15.67a2.242,2.242,0,0,1-2.239,2.239H6.716A2.242,2.242,0,0,1,4.477,15.67V6.716A2.242,2.242,0,0,1,6.716,4.477H51.488a2.242,2.242,0,0,1,2.239,2.239Zm-17.909,58.2H26.863V49.249h8.954Z" transform="translate(48.496 48.496)" fill="#0ccd6a"/></svg>