<svg id="Footer_Two" data-name="Footer Two" xmlns="http://www.w3.org/2000/svg" xmlns:xlink="http://www.w3.org/1999/xlink" width="1600" height="366.078" viewBox="0 0 1600 366.078">
  <defs>
    <clipPath id="clip-path">
      <rect width="165" height="42.34" fill="none"/>
    </clipPath>
  </defs>
  <path id="Path_7" data-name="Path 7" d="M0-40H1600V326.078H0Z" transform="translate(0 40)" fill="#aaa"/>
  <g id="Logo" transform="translate(215 46)" clip-path="url(#clip-path)">
    <g id="Group_313" data-name="Group 313" transform="translate(0 -17)">
      <path id="Union_49" data-name="Union 49" d="M7.987,36.426l5.192-6.384A11.783,11.783,0,0,0,20.966,33a11.634,11.634,0,0,0,8.187-3.36l5.192,5.309.532.538c0-.067,0-.067.066-.067l.865.874A19.219,19.219,0,0,1,21.831,42.34,19.558,19.558,0,0,1,7.987,36.426Zm39.4,0a1.985,1.985,0,0,1-.6-1.478V15.121a1.986,1.986,0,0,1,.6-1.478,2.236,2.236,0,0,1,1.531-.537,2.048,2.048,0,0,1,1.53.537,1.887,1.887,0,0,1,.6,1.478V16a5.821,5.821,0,0,1,2.2-2.218,6.533,6.533,0,0,1,3.262-.806,7.034,7.034,0,0,1,3.86,1.142A9.006,9.006,0,0,1,63.1,17.272a11.624,11.624,0,0,1,.931,4.7,10.315,10.315,0,0,1-.931,4.638,7.566,7.566,0,0,1-2.662,3.091,7.046,7.046,0,0,1-3.926,1.075,6.247,6.247,0,0,1-3.2-.739,5.657,5.657,0,0,1-2.2-2.151v7.125a1.74,1.74,0,0,1-.6,1.411,2.543,2.543,0,0,1-3.128,0Zm4.726-18.548a6.658,6.658,0,0,0-1.131,4.1,6.444,6.444,0,0,0,1.131,4.032,4.32,4.32,0,0,0,6.389,0,6.361,6.361,0,0,0,1.132-3.965,6.787,6.787,0,0,0-1.132-4.1,4.254,4.254,0,0,0-6.389-.067ZM0,22.044A19.937,19.937,0,0,1,5.857,8.065l6.324,5.242a12.032,12.032,0,0,0-2.93,7.863,11.862,11.862,0,0,0,3.329,8.267L7.322,34.678l-.532.539.067.067-.866.873A19.586,19.586,0,0,1,0,22.044Zm29.751,6.989a12.028,12.028,0,0,0,2.928-7.864A11.861,11.861,0,0,0,29.352,12.9L34.61,7.662l.532-.537-.067-.069.865-.873A19.587,19.587,0,0,1,41.93,20.3a19.937,19.937,0,0,1-5.857,13.979ZM119.2,23.792v-8.6a1.985,1.985,0,0,1,.6-1.479,2.545,2.545,0,0,1,3.129,0,1.886,1.886,0,0,1,.6,1.479v8.6a4.31,4.31,0,0,0,.732,2.688,2.636,2.636,0,0,0,2.263.873,3.65,3.65,0,0,0,2.862-1.21,4.6,4.6,0,0,0,1.064-3.226v-7.8a1.987,1.987,0,0,1,.6-1.479,2.122,2.122,0,0,1,1.531-.537,2.423,2.423,0,0,1,1.664.6,1.886,1.886,0,0,1,.6,1.479V28.764a1.985,1.985,0,0,1-.6,1.479,2.415,2.415,0,0,1-1.6.538,2.178,2.178,0,0,1-1.464-.538,1.931,1.931,0,0,1-.533-1.412v-.873a5.074,5.074,0,0,1-2.129,2.151,6.655,6.655,0,0,1-3.063.739C121.266,30.848,119.2,28.5,119.2,23.792ZM80.8,30.243a1.937,1.937,0,0,1-.6-1.546V15.189a1.939,1.939,0,0,1,.6-1.546,2.364,2.364,0,0,1,1.531-.537,1.961,1.961,0,0,1,2.13,2.084V28.7a1.934,1.934,0,0,1-.6,1.546,2.448,2.448,0,0,1-3.061,0Zm80.467-.067a1.938,1.938,0,0,1-.6-1.546v-8.6A4.293,4.293,0,0,0,160,17.272a2.552,2.552,0,0,0-2.064-.806,3.329,3.329,0,0,0-2.729,1.142,4.914,4.914,0,0,0-1,3.227v7.8a1.937,1.937,0,0,1-.6,1.546,2.449,2.449,0,0,1-3.061,0,1.935,1.935,0,0,1-.6-1.546v-8.6a4.293,4.293,0,0,0-.665-2.755,2.552,2.552,0,0,0-2.064-.806,3.2,3.2,0,0,0-2.662,1.142,4.914,4.914,0,0,0-1,3.227v7.8a1.938,1.938,0,0,1-.6,1.546,2.449,2.449,0,0,1-3.062,0,1.938,1.938,0,0,1-.6-1.546V15.121a1.886,1.886,0,0,1,.6-1.478,2.359,2.359,0,0,1,1.53-.537,2.181,2.181,0,0,1,1.465.537,1.886,1.886,0,0,1,.6,1.478v.807a5.472,5.472,0,0,1,2.13-2.151,6.453,6.453,0,0,1,3.061-.739,4.935,4.935,0,0,1,5.058,3.226,5.884,5.884,0,0,1,2.263-2.353,6.011,6.011,0,0,1,3.328-.873,5.529,5.529,0,0,1,4.259,1.679c1,1.076,1.465,2.89,1.4,5.309v8.6a1.938,1.938,0,0,1-.6,1.546,2.418,2.418,0,0,1-1.6.537A2.363,2.363,0,0,1,161.266,30.176Zm-50.25,0a1.938,1.938,0,0,1-.6-1.546v-8.6a4.293,4.293,0,0,0-.665-2.755,2.553,2.553,0,0,0-2.064-.806,3.329,3.329,0,0,0-2.729,1.142,4.914,4.914,0,0,0-1,3.227v7.8a1.935,1.935,0,0,1-.6,1.546,2.449,2.449,0,0,1-3.061,0,1.937,1.937,0,0,1-.6-1.546v-8.6a4.292,4.292,0,0,0-.665-2.755,2.551,2.551,0,0,0-2.064-.806,3.2,3.2,0,0,0-2.662,1.142,4.914,4.914,0,0,0-1,3.227v7.8a1.938,1.938,0,0,1-.6,1.546,2.449,2.449,0,0,1-3.061,0,1.935,1.935,0,0,1-.6-1.546V15.121a1.883,1.883,0,0,1,.6-1.478,2.359,2.359,0,0,1,1.53-.537,2.185,2.185,0,0,1,1.465.537,1.885,1.885,0,0,1,.6,1.478v.807a5.473,5.473,0,0,1,2.13-2.151,6.45,6.45,0,0,1,3.061-.739,4.935,4.935,0,0,1,5.058,3.226,5.889,5.889,0,0,1,2.262-2.353,6.018,6.018,0,0,1,3.329-.873,5.25,5.25,0,0,1,4.192,1.612c1,1.143,1.465,2.89,1.465,5.376v8.6a1.934,1.934,0,0,1-.6,1.546,2.412,2.412,0,0,1-1.6.537A2.361,2.361,0,0,1,111.016,30.176Zm-35.674.47-.931-.067c-3.86-.336-5.79-2.42-5.79-6.317V16.667H66.889a2.246,2.246,0,0,1-1.464-.4,1.641,1.641,0,0,1,0-2.42,2.374,2.374,0,0,1,1.464-.4H68.62V10.283a1.987,1.987,0,0,1,.6-1.479,2.414,2.414,0,0,1,1.6-.538,2.046,2.046,0,0,1,1.53.538,1.888,1.888,0,0,1,.6,1.479v3.226h2.928a2.245,2.245,0,0,1,1.464.4,1.641,1.641,0,0,1,0,2.42,2.375,2.375,0,0,1-1.464.4H72.947v7.931c0,1.746.732,2.621,2.328,2.755l.933.067c1.2.067,1.73.6,1.73,1.545a1.387,1.387,0,0,1-.665,1.278,3.078,3.078,0,0,1-1.531.353Q75.548,30.663,75.342,30.646ZM7.588,7.393l-.532-.537c0,.067,0,.067-.067.134l-.866-.942A19.184,19.184,0,0,1,20.033,0a19.594,19.594,0,0,1,13.91,5.914L28.753,12.3a11.79,11.79,0,0,0-7.787-2.957A11.628,11.628,0,0,0,12.779,12.7ZM80.467,9.274A2.143,2.143,0,0,1,79.8,7.595a2.144,2.144,0,0,1,.665-1.681,2.712,2.712,0,0,1,1.864-.6,2.742,2.742,0,0,1,1.8.6,2.191,2.191,0,0,1,.733,1.681,2.143,2.143,0,0,1-.665,1.679,2.456,2.456,0,0,1-1.864.673A2.741,2.741,0,0,1,80.467,9.274Z" transform="translate(0 17)" fill="#f5f5f5"/>
      <path id="Path_86" data-name="Path 86" d="M54.1,51.075Z" transform="translate(-18.093 -22.392)" fill="#ddd"/>
    </g>
  </g>
  <text id="Shorcut_Links_Freebies_Products_Articles_Learning" data-name="Shorcut Links
Freebies
Products
Articles
Learning" transform="translate(916 57)" fill="#fff" font-size="16" font-family="OpenSans-Bold, Open Sans" font-weight="700"><tspan x="0" y="0">Shorcut Links</tspan><tspan font-family="OpenSans, Open Sans" font-weight="400"><tspan x="0" y="34">Freebies</tspan><tspan x="0" y="68">Products</tspan><tspan x="0" y="102">Articles</tspan><tspan x="0" y="136">Learning</tspan></tspan></text>
  <text id="Contact_1_888_666-9988_noreply_pixelxd.com_2_Elizabeth_St_Suite_309_New_York_New_York_10003_United_States" data-name="Contact
+1 888 666-9988
noreply@pixelxd.com

2 Elizabeth St, Suite 309
New York, New York, 10003
United States" transform="translate(1119 57)" fill="#fff" font-size="16" font-family="OpenSans-Bold, Open Sans" font-weight="700"><tspan x="0" y="0">Contact</tspan><tspan font-family="OpenSans, Open Sans" font-weight="400"><tspan x="0" y="34">+1 888 666-9988</tspan><tspan x="0" y="68">noreply@pixelxd.com</tspan><tspan x="0" y="102"></tspan><tspan x="0" y="136">2 Elizabeth St, Suite 309</tspan><tspan x="0" y="170">New York, New York, 10003</tspan><tspan x="0" y="204">United States</tspan></tspan></text>
  <text id="_PixelXD_-_All_Rights_Reserved." data-name="© PixelXD - All Rights Reserved." transform="translate(215 342)" fill="#fff" font-size="14" font-family="OpenSans, Open Sans"><tspan x="0" y="0">© PixelXD - All Rights Reserved.</tspan></text>
  <rect id="Rectangle_223" data-name="Rectangle 223" width="1600" height="1" transform="translate(0 306)" fill="#ccc"/>
  <g id="Social_Links" data-name="Social Links" transform="translate(413.511 -8559)">
    <path id="Fill-4" d="M28.284,31.092H30.85V24.049h1.925l.381-2.2H30.85V20.254c0-.514.333-1.054.808-1.054h1.311V17H31.363v.01c-2.513.091-3.03,1.545-3.074,3.073h0v1.766H27v2.2h1.284Z" transform="translate(848.181 8871.454)" fill="#ccc" fill-rule="evenodd"/>
    <path id="Fill-1" d="M33.015,21.279a5.155,5.155,0,0,1-1.989.706h0A3.188,3.188,0,0,0,25.614,24.9h0a8.83,8.83,0,0,1-6.573-3.309,3.19,3.19,0,0,0,.967,4.213,2.05,2.05,0,0,1-1.392-.361,3.073,3.073,0,0,0,2.46,3.116,2.525,2.525,0,0,1-1.328.1,3.014,3.014,0,0,0,2.85,2.163A5.67,5.67,0,0,1,18,32.148a9.58,9.58,0,0,0,4.988,1.41,8.858,8.858,0,0,0,8.924-9.312c0-.006,0-.011,0-.018s0-.026,0-.04,0-.031,0-.047a5.5,5.5,0,0,0,1.546-1.632,5.588,5.588,0,0,1-1.768.5,3.388,3.388,0,0,0,1.328-1.732" transform="translate(879.317 8868.364)" fill="#ccc" fill-rule="evenodd"/>
    <path id="Union_21" data-name="Union 21" d="M3.891,11.808A6.112,6.112,0,0,1,6.1.005a6.179,6.179,0,0,1,4.076,1.508,21.58,21.58,0,0,1-1.547,1.6,4.022,4.022,0,0,0-4.746-.125,3.912,3.912,0,0,0-.166,6.1c1.856,1.686,5.364.849,5.877-1.732-1.163-.017-2.328,0-3.49-.038,0-.694-.006-1.388,0-2.083,1.943-.006,3.886-.009,5.833.006a7.007,7.007,0,0,1-1.1,4.722,5.713,5.713,0,0,1-4.7,2.255A6.27,6.27,0,0,1,3.891,11.808Zm12.282-2.82c-.006-.58-.006-1.161-.012-1.741l-1.742-.017V5.494c.58-.006,1.159-.009,1.742-.012q0-.875.014-1.744H17.91c0,.58.006,1.164.012,1.744.58.006,1.163.006,1.742.012V7.229l-1.742.014q-.009.875-.012,1.744Z" transform="translate(925.955 8889.364)" fill="#ccc"/>
    <path id="Union_22" data-name="Union 22" d="M10.531,15H4.469A4.474,4.474,0,0,1,0,10.532V4.469A4.474,4.474,0,0,1,4.469,0h6.063A4.474,4.474,0,0,1,15,4.469v6.063A4.474,4.474,0,0,1,10.531,15ZM7.5,3.621A3.88,3.88,0,1,0,11.38,7.5,3.884,3.884,0,0,0,7.5,3.621Zm3.887-.9a.93.93,0,1,0,.93.93A.931.931,0,0,0,11.387,2.72ZM7.5,9.871A2.37,2.37,0,1,1,9.871,7.5,2.373,2.373,0,0,1,7.5,9.871Z" transform="translate(956.548 8888)" fill="#ccc"/>
  </g>
</svg>
