<svg id="footer-bg" xmlns="http://www.w3.org/2000/svg" width="1624" height="248.197" viewBox="0 0 1624 248.197">
  <path id="wave" d="M0,60.379l54.133,3.464C108.267,67.568,216.533,74.1,324.8,91.749s216.533,45.094,324.8,38.363c108.267-6.993,216.533-48.819,324.8-66.269,108.267-17.188,216.533-10.653,324.8,3.529,108.267,13.92,216.533,34.833,270.667,45.29L1624,123.118V227.684H0Z" transform="translate(0 6.451)" fill="#0366d6" opacity="0.6"/>
  <path id="wave-2" data-name="wave" d="M0,61.538,54.133,65.59c54.133,4.357,162.4,12,270.667,32.641S541.333,150.977,649.6,143.1C757.867,134.924,866.133,86,974.4,65.59c108.267-20.1,216.533-12.46,324.8,4.128,108.267,16.282,216.533,40.744,270.667,52.975L1624,134.924V257.233H0Z" transform="translate(0 -23.549)" fill="#0366d6" opacity="0.6"/>
  <path id="wave-3" data-name="wave" d="M0,63.284l54.133,4.937C108.267,73.53,216.533,82.845,324.8,108s216.533,64.273,324.8,54.679c108.267-9.967,216.533-69.582,324.8-94.453,108.267-24.5,216.533-15.183,324.8,5.03,108.267,19.841,216.533,49.648,270.667,64.552l54.133,14.9V301.746H0Z" transform="translate(0 -53.549)" fill="#0366d6" opacity="0.6"/>
</svg>
